#!OML:ASF E:\I on waltz\AllaLogoMonkeySwing\Project 1\Capture day 1\Session 1\Subject1.ASF
:FULLY-SPECIFIED
:DEGREES
684
root -0.293748 17.92 -3.29446 182.152 177.106 178.547
lowerback 4.32392 -0.863954 -2.83685
upperback -1.40202 -1.24779 1.95149
thorax -3.77129 -0.529731 3.70685
lowerneck -9.82708 -2.37532 -2.08822
upperneck 13.4838 -2.64254 -1.68361
head 5.69704 -1.51671 -0.392289
rclavicle -3.48184e-015 3.29983e-014
rhumerus -32.8719 -27.8915 -74.3321
rradius 19.4039
rwrist 10.3947
rhand -8.03133 -37.4048
rfingers 7.12502
rthumb 17.8787 -66.603
lclavicle -3.48184e-015 3.29983e-014
lhumerus -41.8182 22.4373 81.4295
lradius 33.9944
lwrist -4.35801
lhand -7.71989 -7.73198
lfingers 7.12502
lthumb 18.1783 21.4386
rfemur 0.319835 0.934744 18.0672
rtibia 15.0314
rfoot -14.4991 -9.77008
rtoes 9.14665
lfemur 3.918 -1.61628 -13.5932
ltibia 9.02855
lfoot -13.5875 3.34796
ltoes -33.4056
685
root -0.2838 17.9193 -3.29268 182.107 177.148 178.579
lowerback 4.33375 -0.686074 -2.62564
upperback -1.43707 -0.999519 1.90652
thorax -3.83802 -0.409821 3.52352
lowerneck -9.90936 -0.933935 -0.671999
upperneck 13.3971 -0.678391 -3.24955
head 5.66859 -0.60299 -0.963421
rclavicle 1.08586e-014 -1.17283e-014
rhumerus -32.9177 -28.1564 -74.6063
rradius 19.1752
rwrist 10.3392
rhand -8.52994 -37.3481
rfingers 7.12502
rthumb 17.3989 -66.5894
lclavicle 1.08586e-014 -1.17283e-014
lhumerus -41.5527 21.3642 82.4905
lradius 33.7064
lwrist -4.52836
lhand -7.25559 -7.64905
lfingers 7.12502
lthumb 18.625 21.4793
rfemur 0.44107 1.10689 18.0275
rtibia 14.905
rfoot -14.4019 -9.81553
rtoes 9.11207
lfemur 3.9805 -1.55946 -13.6554
ltibia 9.0253
lfoot -13.5766 3.30686
ltoes -33.7208
686
root -0.273358 17.9187 -3.29207 182.067 177.16 178.596
lowerback 4.35477 -0.500641 -2.37594
upperback -1.46427 -0.739015 1.86075
thorax -3.90204 -0.285216 3.31636
lowerneck -9.80324 0.659063 0.658149
upperneck 13.178 1.46799 -4.61364
head 5.63064 0.414149 -1.4439
rclavicle -5.684e-016 -3.35946e-014
rhumerus -32.975 -28.2641 -74.9433
rradius 19.0829
rwrist 10.1149
rhand -8.90147 -37.2324
rfingers 7.12502
rthumb 17.0413 -66.5049
lclavicle -5.684e-016 -3.35946e-014
lhumerus -41.2157 20.1591 83.6039
lradius 33.4549
lwrist -4.8039
lhand -6.50128 -7.83423
lfingers 7.12502
lthumb 19.3504 21.223
rfemur 0.543144 1.21012 17.9888
rtibia 14.7888
rfoot -14.3245 -9.89232
rtoes 9.06333
lfemur 4.02448 -1.45609 -13.6817
ltibia 9.032
lfoot -13.5877 3.22307
ltoes -34.0192
687
root -0.259504 17.9179 -3.29246 182.06 177.166 178.674
lowerback 4.3455 -0.278784 -2.10643
upperback -1.48711 -0.429593 1.77556
thorax -3.94547 -0.137962 3.05247
lowerneck -9.38792 2.35282 1.96686
upperneck 12.772 3.74201 -5.92513
head 5.54582 1.50625 -1.89589
rclavicle 1.57164e-015 -4.37326e-015
rhumerus -33.1625 -28.3897 -75.2409
rradius 19.2402
rwrist 9.72545
rhand -9.06602 -37.0326
rfingers 7.12502
rthumb 16.8829 -66.3187
lclavicle 1.57164e-015 -4.37326e-015
lhumerus -40.8616 18.8502 84.7497
lradius 33.2885
lwrist -5.22339
lhand -5.43196 -8.39482
lfingers 7.12502
lthumb 20.3783 20.5559
rfemur 0.563858 1.13535 17.8188
rtibia 14.7684
rfoot -14.3306 -9.85599
rtoes 8.99689
lfemur 4.03872 -1.32349 -13.7991
ltibia 9.04212
lfoot -13.616 3.12252
ltoes -34.0396
688
root -0.241873 17.9184 -3.29045 182.019 177.256 178.815
lowerback 4.32931 0.00215161 -1.83979
upperback -1.48001 -0.0433033 1.64376
thorax -3.95484 0.0459257 2.73554
lowerneck -8.86089 3.98631 3.29262
upperneck 12.4392 5.95086 -7.25888
head 5.52462 2.571 -2.36343
rclavicle 7.43889e-015 -8.74653e-015
rhumerus -33.3856 -28.3993 -75.6131
rradius 19.5104
rwrist 9.0816
rhand -9.29652 -36.7882
rfingers 7.12502
rthumb 16.661 -66.0932
lclavicle 7.43889e-015 -8.74653e-015
lhumerus -40.5815 17.5015 85.8559
lradius 33.2796
lwrist -5.70117
lhand -4.25124 -8.92517
lfingers 7.12502
lthumb 21.5127 19.9002
rfemur 0.615525 1.02094 17.5467
rtibia 14.7839
rfoot -14.3527 -9.71848
rtoes 8.51339
lfemur 4.1596 -1.21058 -14.0376
ltibia 8.96508
lfoot -13.6178 3.09271
ltoes -33.9533
689
root -0.223279 17.9198 -3.28642 181.957 177.366 178.936
lowerback 4.29783 0.325867 -1.57231
upperback -1.43474 0.399952 1.51227
thorax -3.91368 0.257112 2.4142
lowerneck -8.32945 5.57583 4.54298
upperneck 12.2439 8.11521 -8.43535
head 5.59417 3.62196 -2.76678
rclavicle -7.01958e-015 5.1684e-015
rhumerus -33.4779 -28.2714 -76.0664
rradius 19.709
rwrist 8.19183
rhand -9.80522 -36.5776
rfingers 7.12502
rthumb 16.1712 -65.923
lclavicle -7.01958e-015 5.1684e-015
lhumerus -40.3055 16.1508 86.9299
lradius 33.3954
lwrist -6.08067
lhand -3.14342 -9.0858
lfingers 7.12502
lthumb 22.5763 19.6141
rfemur 0.684505 0.922612 17.3049
rtibia 14.8155
rfoot -14.3183 -9.63497
rtoes 7.74587
lfemur 4.34131 -1.13132 -14.2653
ltibia 8.81982
lfoot -13.6137 3.0741
ltoes -33.6464
690
root -0.208679 17.9202 -3.28705 181.928 177.308 179.053
lowerback 4.30956 0.623792 -1.34052
upperback -1.41651 0.806051 1.37713
thorax -3.91757 0.451496 2.11241
lowerneck -7.73335 7.11834 5.79498
upperneck 12.1993 10.2402 -9.52784
head 5.74699 4.65975 -3.13707
rclavicle -8.79933e-015 -1.92821e-014
rhumerus -33.5681 -27.9878 -76.5729
rradius 19.9574
rwrist 7.06096
rhand -10.4834 -36.4248
rfingers 7.12502
rthumb 15.5181 -65.8221
lclavicle -8.79933e-015 -1.92821e-014
lhumerus -40.0745 14.7653 87.954
lradius 33.6272
lwrist -6.30844
lhand -2.21773 -9.03144
lfingers 7.12502
lthumb 23.4646 19.5577
rfemur 0.692332 0.868014 17.1191
rtibia 14.9214
rfoot -14.3033 -9.74433
rtoes 7.3439
lfemur 4.3986 -1.15158 -14.4607
ltibia 8.75464
lfoot -13.6367 2.98455
ltoes -33.3157
691
root -0.198185 17.9202 -3.2901 181.878 177.123 179.091
lowerback 4.40891 0.88566 -1.04158
upperback -1.42701 1.16787 1.24856
thorax -3.9925 0.622928 1.78184
lowerneck -7.03566 8.57447 6.9488
upperneck 12.2463 12.2686 -10.4133
head 5.93494 5.66166 -3.4244
rclavicle 5.51317e-015 7.95139e-016
rhumerus -33.8495 -27.9614 -76.91
rradius 20.294
rwrist 6.36823
rhand -10.7764 -36.1644
rfingers 7.12502
rthumb 15.2359 -65.5833
lclavicle 5.51317e-015 7.95139e-016
lhumerus -39.9183 13.3939 88.871
lradius 33.9175
lwrist -6.33112
lhand -1.69088 -8.9838
lfingers 7.12502
lthumb 23.9699 19.5398
rfemur 0.749283 0.941293 17.0873
rtibia 14.9789
rfoot -14.3693 -9.99262
rtoes 7.22884
lfemur 4.41841 -1.25261 -14.5354
ltibia 8.73214
lfoot -13.6837 2.88381
ltoes -33.1732
692
root -0.18622 17.9203 -3.29239 181.852 176.958 179.066
lowerback 4.48483 1.14719 -0.679402
upperback -1.44246 1.53446 1.14073
thorax -4.05295 0.794966 1.43633
lowerneck -6.17006 9.94298 7.90799
upperneck 12.1794 14.1832 -11.0408
head 6.05708 6.62578 -3.60745
rclavicle -1.26787e-014 -8.94531e-015
rhumerus -34.1505 -28.2128 -77.0373
rradius 20.5829
rwrist 6.24796
rhand -10.3353 -35.7348
rfingers 7.12502
rthumb 15.6607 -65.1209
lclavicle -1.26787e-014 -8.94531e-015
lhumerus -39.7582 12.2396 89.6542
lradius 34.1678
lwrist -6.20096
lhand -1.4677 -9.05401
lfingers 7.12502
lthumb 24.1839 19.4413
rfemur 0.799298 0.991527 17.1067
rtibia 14.9625
rfoot -14.4826 -10.1475
rtoes 7.02416
lfemur 4.42491 -1.23361 -14.5124
ltibia 8.68228
lfoot -13.7267 2.69763
ltoes -33.0842
693
root -0.172399 17.9203 -3.29557 181.888 176.805 179.035
lowerback 4.48848 1.41336 -0.294605
upperback -1.45454 1.90833 1.01683
thorax -4.06195 0.969355 1.06232
lowerneck -5.26682 11.1831 8.73424
upperneck 12.0754 15.9323 -11.521
head 6.15197 7.51649 -3.7345
rclavicle -1.87852e-014 5.56597e-015
rhumerus -34.657 -29.6403 -76.1909
rradius 20.9185
rwrist 10.2667
rhand -5.60395 -37.4744
rfingers 7.12502
rthumb 20.213 -66.4428
lclavicle -1.87852e-014 5.56597e-015
lhumerus -39.5203 11.2656 90.3001
lradius 34.3343
lwrist -6.00858
lhand -1.3072 -9.26582
lfingers 7.12502
lthumb 24.3377 19.2089
rfemur 0.763389 0.925961 17.0916
rtibia 14.9898
rfoot -14.523 -10.1989
rtoes 7.07365
lfemur 4.36237 -1.08991 -14.4596
ltibia 8.63313
lfoot -13.7256 2.38484
ltoes -33.0856
